<svg width="16" height="12" viewBox="0 0 16 12" fill="none" xmlns="http://www.w3.org/2000/svg">
    <path d="M9.99996 6.00008C11.4733 6.00008 12.6666 4.80675 12.6666 3.33341C12.6666 1.86008 11.4733 0.666748 9.99996 0.666748C8.52663 0.666748 7.33329 1.86008 7.33329 3.33341C7.33329 4.80675 8.52663 6.00008 9.99996 6.00008ZM9.99996 2.00008C10.7333 2.00008 11.3333 2.60008 11.3333 3.33341C11.3333 4.06675 10.7333 4.66675 9.99996 4.66675C9.26663 4.66675 8.66663 4.06675 8.66663 3.33341C8.66663 2.60008 9.26663 2.00008 9.99996 2.00008ZM9.99996 7.33341C8.21996 7.33341 4.66663 8.22675 4.66663 10.0001V11.3334H15.3333V10.0001C15.3333 8.22675 11.78 7.33341 9.99996 7.33341ZM5.99996 10.0001C6.14663 9.52008 8.20663 8.66675 9.99996 8.66675C11.8 8.66675 13.8666 9.52675 14 10.0001H5.99996ZM3.99996 8.00008V6.00008H5.99996V4.66675H3.99996V2.66675H2.66663V4.66675H0.666626V6.00008H2.66663V8.00008H3.99996Z" fill="white"/>
</svg>
