<svg viewBox="0 0 82 77" fill="none" xmlns="http://www.w3.org/2000/svg">
<g clip-path="url(#clip0_89_29360)">
<path d="M75.3425 52.1058L30.9648 45.9571C27.7773 45.4771 25.4224 42.7531 25.4224 39.536V13.3717C25.4224 10.1547 27.7773 7.43059 30.9648 6.95063L75.3425 0.801953C78.491 0.334964 81.3143 2.76071 81.3143 5.93882V46.969C81.3143 50.1471 78.491 52.5728 75.3425 52.1058Z" fill="#6C79F9"/>
<path d="M6.59666 24.6573L50.9742 30.806C54.1618 31.2859 56.5166 34.01 56.5166 37.227V63.3914C56.5166 66.6084 54.1618 69.3326 50.9742 69.8125L6.59666 75.9483C3.4482 76.4283 0.625 73.9895 0.625 70.8243V29.7812C0.625 26.6031 3.4482 24.1773 6.59666 24.6443V24.6573Z" fill="#9578FF"/>
<path d="M50.9742 30.8059L25.4093 27.2645V39.5489C25.4093 42.7659 27.7642 45.4901 30.9516 45.97L56.5166 49.5114V37.2269C56.5166 34.01 54.1618 31.2858 50.9742 30.8059Z" fill="#5D5DF4"/>
</g>
<defs>
<clipPath id="clip0_89_29360">
<rect width="80.75" height="75.5642" fill="white" transform="translate(0.625 0.75)"/>
</clipPath>
</defs>
</svg>
