<svg width="140" height="38" viewBox="0 0 140 38" fill="none" xmlns="http://www.w3.org/2000/svg">
<g clip-path="url(#clip0_14_251)">
<path d="M58.6868 27.6207H71.6824V31.2895H53.5294V6.41013C53.5294 4.9947 54.6845 3.84662 56.1087 3.84662C57.5328 3.84662 58.688 4.9947 58.688 6.41013V27.6207H58.6868Z" fill="#6C79F9"/>
<path d="M80.6605 12.4399V31.2895H76.2681V12.4399C76.2681 11.2339 77.2509 10.2571 78.4643 10.2571C79.6777 10.2571 80.6605 11.2339 80.6605 12.4399Z" fill="#6C79F9"/>
<path d="M78.4643 7.78043C79.9397 7.78043 81.1357 6.59177 81.1357 5.12549C81.1357 3.65921 79.9397 2.47055 78.4643 2.47055C76.989 2.47055 75.793 3.65921 75.793 5.12549C75.793 6.59177 76.989 7.78043 78.4643 7.78043Z" fill="#6C79F9"/>
<path d="M102.883 12.654C101.449 10.8092 99.1816 9.64026 96.1656 9.64026C93.1496 9.64026 91.0966 10.7015 89.6561 12.397C89.6561 11.2166 88.6931 10.2594 87.5054 10.2594C86.2675 10.2594 85.2637 11.2571 85.2637 12.4873V31.2895H89.6561V18.5228C89.7831 15.6793 91.6532 13.4236 94.9662 13.4236C98.2791 13.4236 100.284 15.8459 100.284 18.8353L100.288 31.2906H104.68V18.3053C104.68 16.1457 104.064 14.1724 102.883 12.6551V12.654Z" fill="#6C79F9"/>
<path d="M129.251 31.2941L118.291 20.981L126.547 13.0776C127.353 12.301 127.371 11.0221 126.59 10.2213L126.575 10.2062C125.793 9.40533 124.507 9.38681 123.701 10.1634L113.616 19.8168V6.00622C113.616 4.80722 112.638 3.83621 111.433 3.83621C110.227 3.83621 109.25 4.80838 109.25 6.00622V31.2883H113.618V22.2819L123.193 31.2929H129.251V31.2941Z" fill="#6C79F9"/>
<path d="M139.605 9.60788C139.45 9.60788 139.308 9.69931 139.245 9.83935L137.835 12.9711L136.426 9.84166C136.362 9.69931 136.22 9.60788 136.063 9.60788C135.844 9.60788 135.665 9.78495 135.665 10.0037V13.8275H136.292V10.8821L137.616 13.8275H138.053L139.371 10.8891V13.8275H139.999V10.0002C139.999 9.7838 139.822 9.60788 139.604 9.60788H139.605Z" fill="#6C79F9"/>
<path d="M134.618 9.60788H131.179C131.035 9.60788 130.916 9.72477 130.916 9.86944C130.916 10.0141 131.034 10.131 131.179 10.131H132.586V13.8229H133.175L133.216 13.816V10.131H134.618C134.762 10.131 134.881 10.0141 134.881 9.86944C134.881 9.72477 134.763 9.60788 134.618 9.60788Z" fill="#6C79F9"/>
</g>
<path d="M41.1765 1.095C41.1765 0.506971 40.6716 0.0458712 40.086 0.0991091L15.4424 2.33944C14.9273 2.38626 14.5329 2.81813 14.5329 3.33533V20.8861C14.5329 21.4033 14.9273 21.8351 15.4424 21.882L40.086 24.1223C40.6716 24.1755 41.1765 23.7144 41.1765 23.1264V1.095Z" fill="#5B52F4"/>
<g filter="url(#filter0_d_14_251)">
<path d="M0 10.7834C0 10.1954 0.504919 9.73429 1.09054 9.78752L25.7342 12.0279C26.2492 12.0747 26.6436 12.5065 26.6436 13.0237V30.5745C26.6436 31.0917 26.2492 31.5236 25.7342 31.5704L1.09054 33.8107C0.50492 33.864 0 33.4029 0 32.8148V10.7834Z" fill="#61C9D9" fill-opacity="0.7" shape-rendering="crispEdges"/>
</g>
<defs>
<filter id="filter0_d_14_251" x="0" y="5.78333" width="34.6436" height="32.0316" filterUnits="userSpaceOnUse" color-interpolation-filters="sRGB">
<feFlood flood-opacity="0" result="BackgroundImageFix"/>
<feColorMatrix in="SourceAlpha" type="matrix" values="0 0 0 0 0 0 0 0 0 0 0 0 0 0 0 0 0 0 127 0" result="hardAlpha"/>
<feOffset dx="4"/>
<feGaussianBlur stdDeviation="2"/>
<feComposite in2="hardAlpha" operator="out"/>
<feColorMatrix type="matrix" values="0 0 0 0 0 0 0 0 0 0 0 0 0 0 0 0 0 0 0.1 0"/>
<feBlend mode="normal" in2="BackgroundImageFix" result="effect1_dropShadow_14_251"/>
<feBlend mode="normal" in="SourceGraphic" in2="effect1_dropShadow_14_251" result="shape"/>
</filter>
<clipPath id="clip0_14_251">
<rect width="86.4706" height="28.8235" fill="white" transform="translate(53.5294 2.47055)"/>
</clipPath>
</defs>
</svg>
