<svg width="152" height="19" viewBox="0 0 152 19" fill="none" xmlns="http://www.w3.org/2000/svg">
<g clip-path="url(#clip0_8_30)">
<path d="M17.7 0.97696C16.9 0.77696 16.1 1.17696 15.7 1.87696L9.90001 12.577L4.10001 1.87696C3.70001 1.17696 2.90001 0.77696 2.10001 0.97696C1.30001 1.17696 0.700012 1.97696 0.700012 2.77696V18.377H3.50001V6.77696L8.40001 15.577C8.80001 16.477 9.90001 16.777 10.7 16.377C11 16.177 11.3 15.977 11.5 15.577L16.3 6.77696V18.277H19.1V2.67696C19.1 1.87696 18.6 1.17696 17.7 0.97696Z" fill="white"/>
<path d="M150.7 11.677C150 10.977 149 10.577 148 10.577H144C143.6 10.577 143.3 10.377 143 10.177C142.7 9.877 142.6 9.577 142.6 9.177C142.6 8.777 142.7 8.477 143 8.177C143.3 7.877 143.6 7.777 144 7.777H150.7V5.177H144C143 5.177 142 5.577 141.4 6.277C140.7 6.977 140.3 7.977 140.3 8.977C140.3 9.977 140.7 10.977 141.4 11.777C142.1 12.477 143 12.877 144 12.877H148.1C148.5 12.877 148.8 12.977 149.1 13.277C149.4 13.577 149.5 13.977 149.5 14.277C149.5 14.677 149.4 14.977 149.1 15.277C148.8 15.577 148.5 15.677 148.1 15.677H140.7V18.077H148.1C149.1 18.077 150.1 17.677 150.8 16.977C152.1 15.577 152.1 13.177 150.7 11.677Z" fill="white"/>
<path d="M51.2 -0.0230103C50.8 -0.0230103 50.4 0.17699 50.1 0.47699C49.8 0.77699 49.6 1.17699 49.6 1.67699C49.6 2.07699 49.8 2.47699 50.1 2.77699C50.7 3.37699 51.6 3.47699 52.2 2.87699L52.3 2.77699C52.6 2.47699 52.8 2.07699 52.8 1.67699C52.8 1.27699 52.6 0.87699 52.3 0.47699C52 0.0769897 51.6 -0.0230103 51.2 -0.0230103Z" fill="white"/>
<path d="M51.2 4.77698C50.5 4.77698 49.9 5.37698 49.9 6.07698V18.277H52.5V6.07698C52.5 5.37698 51.9 4.77698 51.2 4.77698Z" fill="white"/>
<path d="M65.6 6.47699C65 5.87699 64.3 5.47699 63.6 5.17699C61.9 4.57699 60.2 4.57699 58.5 5.17699C57.7 5.47699 57.1 5.87699 56.5 6.47699C55.9 7.07699 55.5 7.77699 55.2 8.57699C54.9 9.47699 54.7 10.477 54.8 11.377V18.277H57.4V11.377C57.3 10.277 57.7 9.17699 58.4 8.27699C60 6.87699 62.3 6.87699 63.8 8.27699C64.5 9.17699 64.9 10.277 64.8 11.377V18.277H67.4V11.377C67.4 10.377 67.3 9.47699 67 8.57699C66.6 7.77699 66.2 7.07699 65.6 6.47699Z" fill="white"/>
<path d="M37.5 0.877014C36.8 0.877014 36.2 1.47701 36.2 2.27701V18.377H38.8V2.27701C38.8 1.47701 38.2 0.877014 37.5 0.877014Z" fill="white"/>
<path d="M46.7 6.977C47.2 6.477 47.2 5.677 46.7 5.177C46.2 4.677 45.5 4.677 45 5.177L40.2 10.177C39.5 10.977 39.5 12.177 40.2 12.877L44.6 18.277H48.1L42.3 11.477L46.7 6.977Z" fill="white"/>
<path d="M128.8 0.576965C128.1 0.576965 127.5 1.17697 127.5 1.97697V18.277H130.1V1.97697C130.1 1.17697 129.6 0.576965 128.8 0.576965Z" fill="white"/>
<path d="M138 6.977C138.5 6.477 138.5 5.677 138 5.177C137.5 4.677 136.8 4.677 136.3 5.177L131.5 10.177C130.8 10.977 130.8 12.177 131.5 12.877L135.9 18.277H139.4L133.6 11.477L138 6.977Z" fill="white"/>
<path d="M106.9 5.17699H104.8C103.3 5.07699 101.8 5.67699 100.8 6.77699C99.7 8.17699 99.2 9.97699 99.3 11.777C99.2 13.577 99.7 15.277 100.8 16.777C101.8 17.877 103.3 18.477 104.8 18.377H106.9C108.4 18.477 109.9 17.877 110.9 16.777C112 15.377 112.5 13.577 112.4 11.777C112.5 9.97699 112 8.27699 110.9 6.87699C109.9 5.67699 108.4 5.07699 106.9 5.17699ZM109.1 14.777C108.5 15.477 107.6 15.777 106.7 15.677H105C104.1 15.777 103.2 15.377 102.6 14.777C102 13.877 101.7 12.777 101.8 11.677C101.7 10.577 102 9.47699 102.6 8.57699C103.2 7.87699 104.1 7.57699 105 7.67699H106.6C107.5 7.57699 108.4 7.97699 109 8.57699C109.6 9.47699 109.8 10.577 109.8 11.677C109.9 12.777 109.6 13.877 109.1 14.777Z" fill="white"/>
<path d="M115.7 6.77699C114.6 8.17699 114.1 9.97699 114.2 11.777C114.1 13.577 114.6 15.277 115.7 16.777C116.7 17.877 118.2 18.477 119.7 18.377H125.3V15.777H120C119.1 15.877 118.2 15.477 117.6 14.877C117 13.977 116.7 12.877 116.8 11.777C116.7 10.677 117 9.57699 117.6 8.67699C118.2 7.97699 119.1 7.67699 120 7.77699H125.4V5.17699H119.8C118.2 5.07699 116.8 5.67699 115.7 6.77699Z" fill="white"/>
<path d="M96.6 10.177C97.3 9.177 97.7 7.877 97.6 6.677C97.6 5.977 97.5 5.177 97.3 4.577C97.1 3.877 96.7 3.277 96.2 2.777C95.7 2.277 95.1 1.877 94.4 1.577C93.6 1.277 92.7 1.177 91.8 1.177H88.3V3.777H91.8C92.3 3.777 92.8 3.877 93.3 3.977C93.6 4.077 93.9 4.277 94.2 4.577C94.4 4.777 94.6 5.077 94.7 5.477C94.8 5.877 94.9 6.277 94.9 6.677C94.9 7.077 94.8 7.477 94.7 7.877C94.6 8.177 94.4 8.477 94.2 8.777C94 9.077 93.6 9.277 93.3 9.377C92.8 9.577 92.3 9.577 91.8 9.577H90.3C90 9.577 89.8 9.777 89.8 10.077C89.8 10.177 89.8 10.277 89.9 10.377L91.2 12.177L95.4 18.277H98.8L94.2 11.877C95.1 11.577 96 10.977 96.6 10.177Z" fill="white"/>
<path d="M79.3 5.17699H74.7C73.2 5.07699 71.7 5.67699 70.7 6.77699C69.6 8.17699 69.1 9.97699 69.2 11.777C69.1 13.577 69.6 15.277 70.7 16.777C71.7 17.877 73.2 18.477 74.7 18.377H76.4C77.1 18.377 77.7 17.777 77.7 17.077C77.7 16.377 77.2 15.777 76.5 15.777H75C74.1 15.877 73.2 15.477 72.6 14.877C72 13.977 71.8 12.877 71.8 11.777C71.7 10.677 72 9.57699 72.6 8.67699C73.2 7.97699 74.1 7.67699 75 7.77699H78.2C78.8 7.77699 79.3 8.27699 79.3 8.87699V18.377H81.9V7.77699C81.9 6.27699 80.8 5.17699 79.3 5.17699Z" fill="white"/>
<path d="M31.4 5.17699H26.8C25.3 5.07699 23.8 5.67699 22.8 6.77699C21.7 8.17699 21.2 9.97699 21.3 11.777C21.2 13.577 21.7 15.277 22.8 16.777C23.8 17.877 25.3 18.477 26.8 18.377H28.5C29.2 18.377 29.8 17.777 29.8 17.077C29.8 16.377 29.2 15.777 28.5 15.777H27C26.1 15.877 25.2 15.477 24.6 14.877C24 13.977 23.7 12.877 23.8 11.777C23.7 10.677 24 9.57699 24.6 8.67699C25.2 7.97699 26.1 7.67699 27 7.77699H30.2C30.8 7.77699 31.3 8.27699 31.3 8.87699V18.377H34V7.77699C34 6.27699 32.8 5.17699 31.4 5.17699Z" fill="white"/>
<path d="M85.6 1.07697C84.8 1.07697 84.2 1.67697 84.2 2.47697V18.277H86.9V2.47697C86.9 1.77697 86.3 1.07697 85.6 1.07697Z" fill="white"/>
</g>
<defs>
<clipPath id="clip0_8_30">
<rect width="152" height="19" fill="white"/>
</clipPath>
</defs>
</svg>
